<svg xmlns="http://www.w3.org/2000/svg" viewBox="0 0 216 216"><defs><style>.cls-1{fill:#231f20;}</style></defs><g id="Layer_3" data-name="Layer 3"><path class="cls-1" d="M49.29,153.76a6.68,6.68,0,0,1,2.05-.66C50.08,153.48,49.3,153.82,49.29,153.76ZM69.35,70.94c.36.53,5-4.27,12.38-4.51,7.74-.25,12.93,4.72,13.33,4.09S90,62.81,82.45,62.78C74.63,62.75,68.93,70.32,69.35,70.94Zm65-4.51c7.74-.25,12.93,4.72,13.33,4.09s-5.09-7.71-12.61-7.74c-7.82,0-13.52,7.54-13.1,8.16S127,66.67,134.32,66.43Zm5.16-10.91c10.07,3.3,14.34,7,14.9,6.13.69-1-4.82-7-12.16-10.57C135.89,48,127,45.53,125.45,48a1.86,1.86,0,0,0-.21,1.21C125.63,52.21,132.05,53.08,139.48,55.52Zm22.78,105.36c0-.3-7.24-2.1-13.12,1a14.21,14.21,0,0,0-3.13,2.25c0-6.13,6.29-9.66,6.29-9.66,2-.88,4-1.2,8-1.82,3.57-.54,4.66-.51,4.66-.63,0-.29-7.23-2.1-13.11,1l1.62-4.24-3.15,3.42-1.19-3.42v6.11c-5.49,3-4.45,10.58-4.45,10.58-4.8,2.11-3.79,10.74-3.79,10.74l.65.75.85-1.45c-.48-2.86,1.06-6.62,2.27-9a17.59,17.59,0,0,1,4.83-3.14c2-.87,4-1.2,8.05-1.81C161.16,161,162.26,161,162.26,160.88Zm49.08-54.07a103.06,103.06,0,0,1-13.82,51.66,5.86,5.86,0,0,0-1.12-.65c0-.07-.07-.12-.1-.19l.19-.31c-4.71-12.85-26.47-7.61-26.47-7.61,7.86-4.72,21.23-1.84,21.23-1.84-1.47-10.28-13.36-18.05-18-20.72l-1.37.38c-5.49,1.57-8.3,2.38-10.93,3.95a25,25,0,0,0-6.68,5.81c-.23.28-.43.56-.63.83-.26,0-.51.07-.76.13a23,23,0,0,1,7.26-8.74,24.3,24.3,0,0,1,11.35-3.95,4.84,4.84,0,0,0,0-.53c0-4.22-6.73-5-9.74-5.16h0a40.58,40.58,0,0,0-5.51,5.4,72.42,72.42,0,0,0-10.74,16.66A79.37,79.37,0,0,1,123,162s-20.31,9.44-28.17,23.07c0,0-.36,1.82,7.2,3,0,0,4.5-8.56,16.38-15.72l16.4-10.66-13.91,10.57S106,183.11,103.46,188.75l2.59,1.77-.75.28s-8-1.87-12.94-4.84l3.84-5.42S99,175,117.35,162.72c0,0,17.82-8.21,26.73-22,0,0,7.18-14.62,15.47-21.73-8-7.74-17.56,8.63-17.56,8.63-3.45,7.42-5.76,11.06-7.29,12.79h0l-.13.16c-2,2.14-2.55,1-2.55,1l.88-1.23,0,0,3.56-5c1.57-8.12-8.91-4.46-8.91-4.46-3.9,11.47-17.68,16.46-17.81,16.5h0A117.64,117.64,0,0,0,93.18,159.4l-.87.77c-1.72,1.56-3.43,3.22-5,5l-.28.3a52.75,52.75,0,0,0-4.52,5.6l-.13.2a32.63,32.63,0,0,0-3.2,5.69H77a43.45,43.45,0,0,1,3.57-5.85h0c-3.82-2.34-5.56-6.85-5.4-7s.51.63,2.33,2.51a31,31,0,0,0,3.74,3.51h0c1.07-1.48,2.38-3.14,3.93-4.92a10.32,10.32,0,0,1-2.72-.93c-4.29-2.19-6.25-7.23-6.08-7.35s.51.61,2.32,2.49a23.86,23.86,0,0,0,4.46,4,12.54,12.54,0,0,0,2.54,1.17c1.3-1.45,2.75-3,4.37-4.55a18.67,18.67,0,0,1-2.77-1.15c-8.32-4.25-12.13-14-11.78-14.27.11-.1,1,1.19,4.51,4.84,4,4.11,6,6.21,8.65,7.78a23.71,23.71,0,0,0,2.82,1.45h0a90.72,90.72,0,0,1,15.37-11.37H99c-11.79-2.87-27.25-24.1-27.25-24.1l-8.13-6.56c-7.08-2.61-7.85,3.42-7.85,3.42C66,126.24,66.5,130.58,66.5,130.58c-2.88-4.2-11-8.73-11-8.73-5.58-3.5-12.57,2.44-12.57,2.44,26.2,7.68,26.2,16.77,26.2,16.77-10.83-14-27.25-13.46-27.25-13.46-11.18,3.32-18.51,21-18.51,21,10.78-3.13,16.82-1.69,19.65-.4a5.75,5.75,0,0,0,.18.92c-21.35-3.18-23.34,9.39-23.34,9.39L19.36,160A103.39,103.39,0,0,1,82.83,6.56c-1.93.76-32.65,13.68-24.36,59.9,0,0-5.28,33.37-1.42,39.31,0,0-1,13.28,33.22,20.61l-2.45-3.67s11,8.56,20.18,8.56a29.2,29.2,0,0,0,19-8.56L125,127.6s31.27-6.11,34.94-24.45a92.8,92.8,0,0,0-2.45-34.25s12.38-51.58-31.08-63.79A103.38,103.38,0,0,1,211.34,106.81ZM56.7,70.48s-2.44-7-8.05-3.5c0,0-5.92,4.2,0,16.76,0,0,2.11,9.79-1,13.29,0,0-5.09,12.59,3.74,12.23,0,0,4.29,1.39,3.24-7C54.6,102.27,50.41,93.53,56.7,70.48Zm66.29,63s-1.42-2.85-10.15,2.83c0,0-6.13,2.83-12-.25,0,0-1.42-2.11-13.93-4.72,0,0-7-3-5.66-.94,0,0,8.25,16,27.14,14.87C108.36,145.3,116.38,143.88,123,133.51Zm44-49.77C172.9,71.18,167,67,167,67c-5.59-3.5-8,3.5-8,3.5,6.29,23,2.1,31.79,2.1,31.79-1.05,8.38,3.24,7,3.24,7C173.1,109.62,168,97,168,97,164.87,93.53,167,83.74,167,83.74ZM62.9,61.65c.56.83,4.83-2.83,14.9-6.13,7.43-2.44,13.85-3.31,14.24-6.3A1.86,1.86,0,0,0,91.83,48c-1.53-2.48-10.44,0-16.77,3.07C67.72,54.66,62.21,60.62,62.9,61.65Zm37.45,22.13a.64.64,0,0,0,.7-.56c-.07-.63-.49-.6-.49-.6a3.62,3.62,0,0,1-2-.42c-3.62-1.9-1.37-5.83-1.37-5.83a57.67,57.67,0,0,0,3.76-6.5c3.12-5.61,1.86-12.22,1.86-12.22-.06-.34-.67-.38-.67-.38-.81.35-.35,1.23-.35,1.23l.11,1.89a18.44,18.44,0,0,1-.92,6.5c-.59,2.11-3.76,7.27-3.76,7.27-2.45,3.34-1.93,5.44-1.93,5.44A5.13,5.13,0,0,0,100.35,83.78ZM81.09,91.7h0c0-.57,0-1.13-.07-1.69,0-.3-.06-.62-.1-.91A17.28,17.28,0,0,0,75.5,78.58,16,16,0,0,1,82,89.09h.16c.09.14.2.25.3.39,6.2,7.34,16.31,7,25.63,6.66,6.25-.21,19.64-.68,26.72-7H135a16,16,0,0,1,6.54-10.51,17.33,17.33,0,0,0-5.42,10.51,18.4,18.4,0,0,0-.18,2.6h0a18.62,18.62,0,0,0,.21,2.82c.07.46.16.91.25,1.36a17.07,17.07,0,0,0,5.17,8.94,16.1,16.1,0,0,1-6-8c-6.94,8.11-17.78,14.91-30,14-10.34-.76-17.74-6.75-24.25-13.86a16,16,0,0,1-5.9,7.84,17.08,17.08,0,0,0,5.12-8.7c0-.06,0-.13,0-.19.1-.41.17-.83.24-1.26A19.41,19.41,0,0,0,81.09,91.7Zm41.23,12.08c-.2-.56-3,.42-11.12.89-2,.13-3.63.17-4.85.19-4.86-.46-8.41-.7-9.15-.68l-1,.07-1,.15a19.44,19.44,0,0,0,11.44,5.51C115.4,110.74,122.69,104.76,122.32,103.78ZM83.31,93a5.71,5.71,0,0,0,.31.8c.88,1.85,2.38,3.36,5.47,5.11a39.59,39.59,0,0,0,20.77,4.77c7-.55,21.13-3.63,24.4-12-5.83,5.07-17.82,7.18-24.19,7.69-.6,0-12,.81-22.59-4A18,18,0,0,1,83.31,93Zm15.8-12a.53.53,0,0,0,0,.8c.43.49,1.07-.17,1.07-.17,1.87-1.21,3.75.81,3.75.81a8.25,8.25,0,0,0,3.23,2.24,5.22,5.22,0,0,0,4.89-1.69l1.34-1.14a2.77,2.77,0,0,1,3.48.11c1,.07.78-.68.78-.68C117,80.13,115.26,80,115.26,80c-1.94-.32-4.33,2.34-4.33,2.34a4.18,4.18,0,0,1-2.44,1.15c-1.85.21-3.86-2.06-3.86-2.06C101.68,78.58,99.11,80.9,99.11,80.9Zm20.25-4.53s2.25,3.93-1.37,5.83a3.6,3.6,0,0,1-2,.42s-.43,0-.5.6a.64.64,0,0,0,.71.56,5.11,5.11,0,0,0,5.09-4.18s.53-2.1-1.93-5.44c0,0-3.16-5.16-3.76-7.27a18.56,18.56,0,0,1-.91-6.5l.1-1.89s.46-.88-.35-1.23c0,0-.61,0-.67.38,0,0-1.26,6.61,1.86,12.22A57.67,57.67,0,0,0,119.36,76.37ZM73.45,168.76v4.92L74,175l1.12.52v-5.28h0s0,0,0,0v-1.5c-2.33-7.32-8.63-16.5-8.63-16.5L68,147.87l-2.51,3-3-1.92c1.37,2.21,2.64,4.34,3.8,6.36a14.54,14.54,0,0,0-4-2.27c-4.19-1.54-8.5-.65-11,.09a16.37,16.37,0,0,1,4.34-.33,17,17,0,0,1,5.83,1.46c1.91.85,3.46,2.1,6.47,4.55l.53.44c1.34,2.43,2.45,4.54,3.26,6.15A15.86,15.86,0,0,0,66,161.51c-4.19-1.54-8.51-.64-11,.09a16.41,16.41,0,0,1,4.34-.33,17,17,0,0,1,5.84,1.46c1.9.86,3.45,2.1,6.47,4.56C72.42,167.88,73,168.36,73.45,168.76ZM29.29,154.6s3.91.09,5.51,5.3l1.88-1.22s-2.24-7.3-8.16-7.08c0,0-6.87,1.21-7.34,9.66,0,0,0,4.82,3.68,7.54,0,0,1.59,1.48,2.08,1.44l1.11-2.1a7.59,7.59,0,0,1-4.31-7.27S24.86,155.45,29.29,154.6Zm149.36,24.22a6.7,6.7,0,0,1-3.85-5.76,6.18,6.18,0,0,1,3.74-5.16l-.71-1.91a8.42,8.42,0,0,0-5,7.68s.47,6.82,6,7.68a5.8,5.8,0,0,0,5.12-3.25,6.94,6.94,0,0,0,1-2l-1.32-1.19S182.15,179.29,178.65,178.82Zm-7.3,7.38,1.16,1.31c-2.95,4.9-5.52,4.64-5.52,4.64-3.43,1-5.54-3.61-5.54-3.61-2-4-.85-6.94-.85-6.94a5.54,5.54,0,0,1,4.36-4c3.9,0,5.27,4.44,5.27,4.44l-6.84,5.62c1.85,3.53,4.55,2.05,4.55,2.05C169.78,189.09,171.35,186.2,171.35,186.2Zm-3.61-4.37c-2-3.79-4.39-1.51-4.39-1.51-2.4,2.07-.78,5.75-.78,5.75ZM34.52,171.17a5.22,5.22,0,0,0,.1,6c1.13,1.88,3.89,2.61,3.89,2.61L38,181.52c-4.8-1.57-5.55-4.6-5.55-4.6-2-3.54.72-7.63.72-7.63,2.33-3.77,5-3.5,5-3.5,3.31.08,4.65,3.5,4.65,3.5a8.22,8.22,0,0,1-1.45,7.63Zm.89-1.5L40.52,174c2.14-3.67-.46-5.55-.46-5.55C37.62,166.48,35.41,169.67,35.41,169.67Zm100.82,34.44.78,1.67c-4,3.57-6.42,2.35-6.42,2.35-3.47-.33-4.36-5.42-4.37-5.49-.93-4.59.91-6.92.91-6.92a4.81,4.81,0,0,1,5.16-2.21c3.7,1.48,3.9,6.19,3.9,6.19l-7.9,2.8c.89,4.06,3.83,3.65,3.83,3.65C134,206.27,136.23,204.11,136.23,204.11Zm-8.33-3.41,6-2.12c-1-4.34-3.81-3.06-3.81-3.06C127.28,196.6,127.9,200.7,127.9,200.7ZM62.56,184.84a8.47,8.47,0,0,1-.45,7.81l-7.42-4.37c-1.55,3.77.86,5.85.86,5.85,1.36,1.64,4.19,1.83,4.19,1.83l-.34,1.89c-4.93-.64-6.06-3.48-6.06-3.48-2.42-3.12-.28-7.67-.28-7.67,1.82-4.19,4.46-4.42,4.46-4.42C60.79,181.71,62.56,184.84,62.56,184.84Zm-2.75-.31c-2.66-1.48-4.44,2.09-4.44,2.09l5.61,3.3C62.62,185.89,59.81,184.53,59.81,184.53Zm-8.59-15.38L42.7,187.41l1.84,1.3,8.53-18.26Zm27.61,23.12c2.07,3.39.51,7.77.51,7.77-1.63,4.84-4.5,4.94-4.5,4.94-4.46.72-5.35-4.27-5.35-4.27l-.67,2.23-1.76-.68,5.27-20,2,.79-2.22,8.58C75.72,188.21,78.83,192.27,78.83,192.27Zm-2,1c-3.71-3.21-5.48,1.46-5.48,1.46l-.75,2.9a4.48,4.48,0,0,0,1.73,4.83c3.79,1.75,5-3.31,5-3.31C78.57,195.07,76.8,193.24,76.8,193.24Zm12.62,2.95-.11,0,.45-3.24-2.13-.53L85,208.83l2.41.6,1.31-7.85s.58-7,5.2-5l.47-2.82S91.65,192.05,89.42,196.19Zm17.92,4.88-.34,4.54a38.44,38.44,0,0,0-.27,5.28l-1.93-.24v-1.82s-2.18,2.77-5.15,1.2c0,0-2.81-1.38-1.51-5.8a4.88,4.88,0,0,1,4.44-2.85l2.66.14s.57-3-1.68-3.83a4.31,4.31,0,0,0-3.78.56l-.33-1.78a5.8,5.8,0,0,1,5.43-.42S107.46,197.13,107.34,201.07Zm-2.22,2.26c-3.16-.69-4.5.77-4.5.77-1.62,2.38-.19,3.81-.19,3.81,1.88,2,3.8-.46,3.8-.46C105.11,206.15,105.12,203.46,105.12,203.33Zm11.93-11.5-2.09.64,0,3.43-1.81,0,0,2,1.82,0-.13,8.55c.12,2.9,1.25,3.54,1.25,3.54,1.2,1.2,3.73.31,3.73.31l-.08-2c-1.71.41-2.16-.19-2.16-.19-.8-.67-.63-2.76-.63-2.76l.1-7.45,3,.06,0-2-3.05-.07ZM186.87,155s-3.11,1.77-2.3,6.16l-5.27-6.2-1.48,1.87,12.31,14.67,1.49-1.87-5.43-6.45s-1.73-2.93.49-5.25c0,0,1.38-1.81,3.57.42l5.35,6.27,1.48-1.87L192,156.55S189.55,153.57,186.87,155ZM150.52,185.9l3.59-2.77L153,181l-4,3.12-1.19.92-3.69,2.86,1.11,2.16,3.58-2.77,5.79,13,1.82-1.22-5.83-13.08Z"/></g></svg>